<svg id="Layer_1" data-name="Layer 1" xmlns="http://www.w3.org/2000/svg" viewBox="0 0 45.93 45.93"><defs><style>.cls-1{fill:#fff;stroke:#ed1c24;stroke-miterlimit:10;stroke-width:3px;}.cls-2{fill:#ed1c25;fill-rule:evenodd;}</style></defs><title>cepheus-red-solid</title><circle class="cls-1" cx="22.97" cy="22.97" r="21.47"/><path class="cls-2" d="M200.34,284.26c3-9.85,21.39-7.08,20.18,3.64-2.16-5.46-7.8-7.11-12.88-5.89,4.93-1,10.55.49,12.51,6,.44,2-.25,4.39-2.55,6.76,0,0,2.08-2.4.27-4.31s-3.47-3-8.25-4.63c2.18,4.2,3.69,7.25,4.74,6.81s-1.6,1-1.28,5.06,1.54,5.27,1.54,5.27l-8.57-5.91c-1.78-4.11-3.33-4.94-5.66-5.66a13.89,13.89,0,0,1-.06-7.18Zm8.7,2.1a15.9,15.9,0,0,0,3.43,6.65c-1.21,2.28.37,6,1,8.29-.64-2.81-1.88-5.72-.42-8.45C210.8,291.12,209,286.35,209,286.35Z" transform="translate(-187.73 -261.84)"/><path class="cls-2" d="M199.84,291.31c-.79.14-4.1.14-5.67,4.6,3.32-9.61-1.24-10.48,1.28-16.87a14.85,14.85,0,0,0,4.42,2.7,22.77,22.77,0,0,1-4.09-3.21,16.39,16.39,0,0,1,2.38-2.76,14.87,14.87,0,0,0,3.17,4.16,22.79,22.79,0,0,1-2.7-4.58,19.21,19.21,0,0,1,3.52-2.4,15,15,0,0,0,1.44,5.3,22.82,22.82,0,0,1-.83-5.62,24.16,24.16,0,0,1,3.71-1.46,15,15,0,0,0,.61,5.49,22.82,22.82,0,0,1,0-5.68,30.49,30.49,0,0,1,4.57-.88,15.13,15.13,0,0,0-1.15,6,22.83,22.83,0,0,1,1.9-6.11,37.88,37.88,0,0,1,4.81-.14,15.53,15.53,0,0,0-2.85,7.5,22.57,22.57,0,0,1,3.69-7.46,46,46,0,0,1,6.33.79c-1.61,1.43-5.88,5.67-3.87,9.76,4.3,8.74-.11,11.56-3.42,18.37-.43-.94-.66-3,.08-3.47a1,1,0,0,0,0,.66,14.69,14.69,0,0,0,1.38-1.53,8.64,8.64,0,0,0,2.18-4.65l0,.1.22-2a8.21,8.21,0,0,0-1.4-5.73,11.71,11.71,0,0,0-8.43-4.47,13.44,13.44,0,0,0-4.57.3,10.22,10.22,0,0,0-4,1.94,8.35,8.35,0,0,0-2.76,4.12,11.33,11.33,0,0,0-.44,2.57A15.22,15.22,0,0,0,199.84,291.31Z" transform="translate(-187.73 -261.84)"/></svg>