<svg id="Layer_1" data-name="Layer 1" xmlns="http://www.w3.org/2000/svg" viewBox="0 0 72.16 72.16"><defs><style>.cls-1{fill:#fff;stroke:#ed1c24;stroke-miterlimit:10;stroke-width:3px;}.cls-2{fill:#ed1c25;fill-rule:evenodd;}</style></defs><title>cepheus-red-solid-large</title><circle class="cls-1" cx="36.08" cy="36.08" r="34.58"/><path class="cls-2" d="M207.12,297c4.8-15.86,34.45-11.41,32.5,5.86-3.48-8.79-12.57-11.45-20.74-9.49,7.94-1.63,17,.8,20.15,9.74.71,3.28-.4,7.07-4.11,10.88,0,0,3.35-3.86.44-6.95s-5.58-4.8-13.3-7.45c3.51,6.77,5.95,11.68,7.63,11s-2.58,1.6-2.06,8.14,2.49,8.49,2.49,8.49l-13.8-9.51c-2.86-6.62-5.36-8-9.11-9.12a22.37,22.37,0,0,1-.09-11.56Zm14,3.38a25.62,25.62,0,0,0,5.52,10.71c-1.95,3.67.59,9.71,1.58,13.35-1-4.53-3-9.21-.67-13.61C224,308.08,221.14,300.41,221.14,300.41Z" transform="translate(-187.73 -261.84)"/><path class="cls-2" d="M206.32,308.39c-1.27.22-6.61.22-9.13,7.41,5.35-15.48-2-16.89,2.06-27.17a23.92,23.92,0,0,0,7.12,4.35,36.68,36.68,0,0,1-6.58-5.17,26.39,26.39,0,0,1,3.83-4.45,24,24,0,0,0,5.11,6.7,36.71,36.71,0,0,1-4.36-7.38,30.94,30.94,0,0,1,5.67-3.87,24.08,24.08,0,0,0,2.32,8.55,36.75,36.75,0,0,1-1.34-9.05,38.92,38.92,0,0,1,6-2.35,24.09,24.09,0,0,0,1,8.84,36.76,36.76,0,0,1,.06-9.14,49.11,49.11,0,0,1,7.37-1.42,24.37,24.37,0,0,0-1.85,9.72,36.77,36.77,0,0,1,3.06-9.84,61,61,0,0,1,7.75-.23,25,25,0,0,0-4.59,12.08,36.35,36.35,0,0,1,5.94-12,74.06,74.06,0,0,1,10.2,1.27c-2.6,2.31-9.47,9.13-6.23,15.72,6.93,14.08-.17,18.62-5.51,29.59-.69-1.52-1.06-4.83.13-5.59a1.56,1.56,0,0,0-.06,1.06,23.66,23.66,0,0,0,2.23-2.46A13.92,13.92,0,0,0,240,306l.06.16.36-3.21a13.22,13.22,0,0,0-2.25-9.23c-3-4.34-8.44-6.68-13.59-7.2a21.66,21.66,0,0,0-7.36.49,16.46,16.46,0,0,0-6.44,3.12,13.45,13.45,0,0,0-4.44,6.64,18.25,18.25,0,0,0-.71,4.15A24.52,24.52,0,0,0,206.32,308.39Z" transform="translate(-187.73 -261.84)"/></svg>